<mxfile host="app.diagrams.net" modified="2023-05-29T00:22:47.054Z" agent="Mozilla/5.0 (Windows NT 10.0; Win64; x64) AppleWebKit/537.36 (KHTML, like Gecko) Chrome/113.0.0.0 Safari/537.36" etag="0Cg1gRQ-_QPb9pP4ipur" version="21.3.2" type="github">
  <diagram name="第 1 页" id="iZdqquuD-61x1iYVZy-J">
    <mxGraphModel dx="1761" dy="515" grid="1" gridSize="10" guides="1" tooltips="1" connect="1" arrows="1" fold="1" page="1" pageScale="1" pageWidth="827" pageHeight="1169" math="0" shadow="0">
      <root>
        <mxCell id="0" />
        <mxCell id="1" parent="0" />
        <mxCell id="Hkx6BqKdWW9ap7nIB-2t-1" value="" style="shape=mxgraph.cisco.computers_and_peripherals.terminal;sketch=0;html=1;pointerEvents=1;dashed=0;fillColor=#036897;strokeColor=#ffffff;strokeWidth=2;verticalLabelPosition=bottom;verticalAlign=top;align=center;outlineConnect=0;" vertex="1" parent="1">
          <mxGeometry x="140" y="180" width="60" height="54" as="geometry" />
        </mxCell>
        <mxCell id="Hkx6BqKdWW9ap7nIB-2t-5" style="edgeStyle=orthogonalEdgeStyle;rounded=0;orthogonalLoop=1;jettySize=auto;html=1;entryX=1;entryY=0.5;entryDx=0;entryDy=0;entryPerimeter=0;strokeColor=#A50040;strokeWidth=4;shape=link;fillColor=#d80073;" edge="1" parent="1" source="Hkx6BqKdWW9ap7nIB-2t-2" target="Hkx6BqKdWW9ap7nIB-2t-1">
          <mxGeometry relative="1" as="geometry" />
        </mxCell>
        <mxCell id="Hkx6BqKdWW9ap7nIB-2t-2" value="" style="shape=mxgraph.cisco.computers_and_peripherals.terminal;sketch=0;html=1;pointerEvents=1;dashed=0;fillColor=#036897;strokeColor=#ffffff;strokeWidth=2;verticalLabelPosition=bottom;verticalAlign=top;align=center;outlineConnect=0;" vertex="1" parent="1">
          <mxGeometry x="440" y="180" width="61" height="54" as="geometry" />
        </mxCell>
        <mxCell id="Hkx6BqKdWW9ap7nIB-2t-3" value="主机A" style="text;html=1;align=center;verticalAlign=middle;resizable=0;points=[];autosize=1;strokeColor=none;fillColor=none;" vertex="1" parent="1">
          <mxGeometry x="150" y="130" width="60" height="30" as="geometry" />
        </mxCell>
        <mxCell id="Hkx6BqKdWW9ap7nIB-2t-4" value="主机B" style="text;html=1;align=center;verticalAlign=middle;resizable=0;points=[];autosize=1;strokeColor=none;fillColor=none;" vertex="1" parent="1">
          <mxGeometry x="440" y="128" width="60" height="30" as="geometry" />
        </mxCell>
        <mxCell id="Hkx6BqKdWW9ap7nIB-2t-6" value="物理介质" style="text;html=1;align=center;verticalAlign=middle;resizable=0;points=[];autosize=1;strokeColor=none;fillColor=none;" vertex="1" parent="1">
          <mxGeometry x="280" y="168" width="70" height="30" as="geometry" />
        </mxCell>
        <mxCell id="Hkx6BqKdWW9ap7nIB-2t-7" value="" style="shape=mxgraph.cisco.computers_and_peripherals.pc;sketch=0;html=1;pointerEvents=1;dashed=0;fillColor=#036897;strokeColor=#ffffff;strokeWidth=2;verticalLabelPosition=bottom;verticalAlign=top;align=center;outlineConnect=0;" vertex="1" parent="1">
          <mxGeometry x="122" y="430" width="78" height="70" as="geometry" />
        </mxCell>
        <mxCell id="Hkx6BqKdWW9ap7nIB-2t-9" style="edgeStyle=orthogonalEdgeStyle;rounded=0;orthogonalLoop=1;jettySize=auto;html=1;exitX=0;exitY=0.5;exitDx=0;exitDy=0;exitPerimeter=0;entryX=0.83;entryY=0.5;entryDx=0;entryDy=0;entryPerimeter=0;endArrow=classic;endFill=1;" edge="1" parent="1" source="Hkx6BqKdWW9ap7nIB-2t-8" target="Hkx6BqKdWW9ap7nIB-2t-7">
          <mxGeometry relative="1" as="geometry" />
        </mxCell>
        <mxCell id="Hkx6BqKdWW9ap7nIB-2t-13" style="edgeStyle=orthogonalEdgeStyle;rounded=0;orthogonalLoop=1;jettySize=auto;html=1;exitX=0.5;exitY=0;exitDx=0;exitDy=0;exitPerimeter=0;entryX=0.5;entryY=1;entryDx=0;entryDy=0;entryPerimeter=0;" edge="1" parent="1" source="Hkx6BqKdWW9ap7nIB-2t-8" target="Hkx6BqKdWW9ap7nIB-2t-10">
          <mxGeometry relative="1" as="geometry" />
        </mxCell>
        <mxCell id="Hkx6BqKdWW9ap7nIB-2t-14" style="edgeStyle=orthogonalEdgeStyle;rounded=0;orthogonalLoop=1;jettySize=auto;html=1;exitX=0.98;exitY=0.5;exitDx=0;exitDy=0;exitPerimeter=0;" edge="1" parent="1" source="Hkx6BqKdWW9ap7nIB-2t-8" target="Hkx6BqKdWW9ap7nIB-2t-11">
          <mxGeometry relative="1" as="geometry" />
        </mxCell>
        <mxCell id="Hkx6BqKdWW9ap7nIB-2t-15" style="edgeStyle=orthogonalEdgeStyle;rounded=0;orthogonalLoop=1;jettySize=auto;html=1;exitX=0.5;exitY=0.98;exitDx=0;exitDy=0;exitPerimeter=0;entryX=0.5;entryY=0;entryDx=0;entryDy=0;entryPerimeter=0;" edge="1" parent="1" source="Hkx6BqKdWW9ap7nIB-2t-8" target="Hkx6BqKdWW9ap7nIB-2t-12">
          <mxGeometry relative="1" as="geometry" />
        </mxCell>
        <mxCell id="Hkx6BqKdWW9ap7nIB-2t-8" value="" style="shape=mxgraph.cisco.switches.workgroup_switch;sketch=0;html=1;pointerEvents=1;dashed=0;fillColor=#036897;strokeColor=#ffffff;strokeWidth=2;verticalLabelPosition=bottom;verticalAlign=top;align=center;outlineConnect=0;" vertex="1" parent="1">
          <mxGeometry x="360" y="440" width="101" height="50" as="geometry" />
        </mxCell>
        <mxCell id="Hkx6BqKdWW9ap7nIB-2t-10" value="" style="shape=mxgraph.cisco.computers_and_peripherals.pc;sketch=0;html=1;pointerEvents=1;dashed=0;fillColor=#036897;strokeColor=#ffffff;strokeWidth=2;verticalLabelPosition=bottom;verticalAlign=top;align=center;outlineConnect=0;" vertex="1" parent="1">
          <mxGeometry x="371.5" y="290" width="78" height="70" as="geometry" />
        </mxCell>
        <mxCell id="Hkx6BqKdWW9ap7nIB-2t-11" value="" style="shape=mxgraph.cisco.computers_and_peripherals.pc;sketch=0;html=1;pointerEvents=1;dashed=0;fillColor=#036897;strokeColor=#ffffff;strokeWidth=2;verticalLabelPosition=bottom;verticalAlign=top;align=center;outlineConnect=0;" vertex="1" parent="1">
          <mxGeometry x="640" y="430" width="78" height="70" as="geometry" />
        </mxCell>
        <mxCell id="Hkx6BqKdWW9ap7nIB-2t-12" value="" style="shape=mxgraph.cisco.computers_and_peripherals.pc;sketch=0;html=1;pointerEvents=1;dashed=0;fillColor=#036897;strokeColor=#ffffff;strokeWidth=2;verticalLabelPosition=bottom;verticalAlign=top;align=center;outlineConnect=0;" vertex="1" parent="1">
          <mxGeometry x="371.5" y="600" width="78" height="70" as="geometry" />
        </mxCell>
        <mxCell id="Hkx6BqKdWW9ap7nIB-2t-16" value="主机A" style="text;html=1;align=center;verticalAlign=middle;resizable=0;points=[];autosize=1;strokeColor=none;fillColor=none;" vertex="1" parent="1">
          <mxGeometry x="131" y="380" width="60" height="30" as="geometry" />
        </mxCell>
        <mxCell id="Hkx6BqKdWW9ap7nIB-2t-17" value="主机B" style="text;html=1;align=center;verticalAlign=middle;resizable=0;points=[];autosize=1;strokeColor=none;fillColor=none;" vertex="1" parent="1">
          <mxGeometry x="384" y="250" width="60" height="30" as="geometry" />
        </mxCell>
        <mxCell id="Hkx6BqKdWW9ap7nIB-2t-18" value="主机C" style="text;html=1;align=center;verticalAlign=middle;resizable=0;points=[];autosize=1;strokeColor=none;fillColor=none;" vertex="1" parent="1">
          <mxGeometry x="380" y="690" width="60" height="30" as="geometry" />
        </mxCell>
        <mxCell id="Hkx6BqKdWW9ap7nIB-2t-19" value="主机D" style="text;html=1;align=center;verticalAlign=middle;resizable=0;points=[];autosize=1;strokeColor=none;fillColor=none;" vertex="1" parent="1">
          <mxGeometry x="649" y="370" width="60" height="30" as="geometry" />
        </mxCell>
        <mxCell id="Hkx6BqKdWW9ap7nIB-2t-23" style="edgeStyle=orthogonalEdgeStyle;rounded=0;orthogonalLoop=1;jettySize=auto;html=1;entryX=0;entryY=0.5;entryDx=0;entryDy=0;entryPerimeter=0;shape=link;" edge="1" parent="1" source="Hkx6BqKdWW9ap7nIB-2t-20" target="Hkx6BqKdWW9ap7nIB-2t-21">
          <mxGeometry relative="1" as="geometry" />
        </mxCell>
        <mxCell id="Hkx6BqKdWW9ap7nIB-2t-26" style="edgeStyle=orthogonalEdgeStyle;rounded=0;orthogonalLoop=1;jettySize=auto;html=1;" edge="1" parent="1" source="Hkx6BqKdWW9ap7nIB-2t-20" target="Hkx6BqKdWW9ap7nIB-2t-25">
          <mxGeometry relative="1" as="geometry" />
        </mxCell>
        <mxCell id="Hkx6BqKdWW9ap7nIB-2t-20" value="" style="shape=mxgraph.cisco.switches.workgroup_switch;sketch=0;html=1;pointerEvents=1;dashed=0;fillColor=#036897;strokeColor=#ffffff;strokeWidth=2;verticalLabelPosition=bottom;verticalAlign=top;align=center;outlineConnect=0;" vertex="1" parent="1">
          <mxGeometry x="100" y="820" width="80" height="50" as="geometry" />
        </mxCell>
        <mxCell id="Hkx6BqKdWW9ap7nIB-2t-24" style="edgeStyle=orthogonalEdgeStyle;rounded=0;orthogonalLoop=1;jettySize=auto;html=1;entryX=0;entryY=0.5;entryDx=0;entryDy=0;entryPerimeter=0;shape=link;" edge="1" parent="1" source="Hkx6BqKdWW9ap7nIB-2t-21" target="Hkx6BqKdWW9ap7nIB-2t-22">
          <mxGeometry relative="1" as="geometry" />
        </mxCell>
        <mxCell id="Hkx6BqKdWW9ap7nIB-2t-21" value="" style="shape=mxgraph.cisco.switches.workgroup_switch;sketch=0;html=1;pointerEvents=1;dashed=0;fillColor=#036897;strokeColor=#ffffff;strokeWidth=2;verticalLabelPosition=bottom;verticalAlign=top;align=center;outlineConnect=0;" vertex="1" parent="1">
          <mxGeometry x="271.5" y="820" width="101" height="50" as="geometry" />
        </mxCell>
        <mxCell id="Hkx6BqKdWW9ap7nIB-2t-28" style="edgeStyle=orthogonalEdgeStyle;rounded=0;orthogonalLoop=1;jettySize=auto;html=1;" edge="1" parent="1" source="Hkx6BqKdWW9ap7nIB-2t-22" target="Hkx6BqKdWW9ap7nIB-2t-27">
          <mxGeometry relative="1" as="geometry" />
        </mxCell>
        <mxCell id="Hkx6BqKdWW9ap7nIB-2t-22" value="" style="shape=mxgraph.cisco.switches.workgroup_switch;sketch=0;html=1;pointerEvents=1;dashed=0;fillColor=#036897;strokeColor=#ffffff;strokeWidth=2;verticalLabelPosition=bottom;verticalAlign=top;align=center;outlineConnect=0;" vertex="1" parent="1">
          <mxGeometry x="439" y="820" width="101" height="50" as="geometry" />
        </mxCell>
        <mxCell id="Hkx6BqKdWW9ap7nIB-2t-25" value="" style="shape=mxgraph.cisco.computers_and_peripherals.pc;sketch=0;html=1;pointerEvents=1;dashed=0;fillColor=#036897;strokeColor=#ffffff;strokeWidth=2;verticalLabelPosition=bottom;verticalAlign=top;align=center;outlineConnect=0;" vertex="1" parent="1">
          <mxGeometry x="100" y="970" width="78" height="70" as="geometry" />
        </mxCell>
        <mxCell id="Hkx6BqKdWW9ap7nIB-2t-27" value="" style="shape=mxgraph.cisco.computers_and_peripherals.pc;sketch=0;html=1;pointerEvents=1;dashed=0;fillColor=#036897;strokeColor=#ffffff;strokeWidth=2;verticalLabelPosition=bottom;verticalAlign=top;align=center;outlineConnect=0;" vertex="1" parent="1">
          <mxGeometry x="449.5" y="970" width="78" height="70" as="geometry" />
        </mxCell>
        <mxCell id="Hkx6BqKdWW9ap7nIB-2t-29" value="主机A" style="text;html=1;align=center;verticalAlign=middle;resizable=0;points=[];autosize=1;strokeColor=none;fillColor=none;" vertex="1" parent="1">
          <mxGeometry x="110" y="1060" width="60" height="30" as="geometry" />
        </mxCell>
        <mxCell id="Hkx6BqKdWW9ap7nIB-2t-31" value="主机B" style="text;html=1;align=center;verticalAlign=middle;resizable=0;points=[];autosize=1;strokeColor=none;fillColor=none;" vertex="1" parent="1">
          <mxGeometry x="449.5" y="1050" width="60" height="30" as="geometry" />
        </mxCell>
        <mxCell id="Hkx6BqKdWW9ap7nIB-2t-32" value="交换机1" style="text;html=1;align=center;verticalAlign=middle;resizable=0;points=[];autosize=1;strokeColor=none;fillColor=none;" vertex="1" parent="1">
          <mxGeometry x="105" y="770" width="70" height="30" as="geometry" />
        </mxCell>
        <mxCell id="Hkx6BqKdWW9ap7nIB-2t-33" value="交换机2" style="text;html=1;align=center;verticalAlign=middle;resizable=0;points=[];autosize=1;strokeColor=none;fillColor=none;" vertex="1" parent="1">
          <mxGeometry x="290" y="770" width="70" height="30" as="geometry" />
        </mxCell>
        <mxCell id="Hkx6BqKdWW9ap7nIB-2t-34" value="交换机3" style="text;html=1;align=center;verticalAlign=middle;resizable=0;points=[];autosize=1;strokeColor=none;fillColor=none;" vertex="1" parent="1">
          <mxGeometry x="461" y="770" width="70" height="30" as="geometry" />
        </mxCell>
        <mxCell id="Hkx6BqKdWW9ap7nIB-2t-36" style="edgeStyle=orthogonalEdgeStyle;rounded=0;orthogonalLoop=1;jettySize=auto;html=1;entryX=0;entryY=0.5;entryDx=0;entryDy=0;entryPerimeter=0;shape=link;" edge="1" parent="1" source="Hkx6BqKdWW9ap7nIB-2t-37" target="Hkx6BqKdWW9ap7nIB-2t-39">
          <mxGeometry relative="1" as="geometry" />
        </mxCell>
        <mxCell id="Hkx6BqKdWW9ap7nIB-2t-70" style="edgeStyle=orthogonalEdgeStyle;rounded=0;orthogonalLoop=1;jettySize=auto;html=1;" edge="1" parent="1" source="Hkx6BqKdWW9ap7nIB-2t-37" target="Hkx6BqKdWW9ap7nIB-2t-59">
          <mxGeometry relative="1" as="geometry" />
        </mxCell>
        <mxCell id="Hkx6BqKdWW9ap7nIB-2t-37" value="" style="shape=mxgraph.cisco.switches.workgroup_switch;sketch=0;html=1;pointerEvents=1;dashed=0;fillColor=#036897;strokeColor=#ffffff;strokeWidth=2;verticalLabelPosition=bottom;verticalAlign=top;align=center;outlineConnect=0;" vertex="1" parent="1">
          <mxGeometry x="140" y="1300" width="80" height="50" as="geometry" />
        </mxCell>
        <mxCell id="Hkx6BqKdWW9ap7nIB-2t-38" style="edgeStyle=orthogonalEdgeStyle;rounded=0;orthogonalLoop=1;jettySize=auto;html=1;entryX=0;entryY=0.5;entryDx=0;entryDy=0;entryPerimeter=0;shape=link;" edge="1" parent="1" source="Hkx6BqKdWW9ap7nIB-2t-39" target="Hkx6BqKdWW9ap7nIB-2t-40">
          <mxGeometry relative="1" as="geometry" />
        </mxCell>
        <mxCell id="Hkx6BqKdWW9ap7nIB-2t-69" style="edgeStyle=orthogonalEdgeStyle;rounded=0;orthogonalLoop=1;jettySize=auto;html=1;" edge="1" parent="1" source="Hkx6BqKdWW9ap7nIB-2t-39" target="Hkx6BqKdWW9ap7nIB-2t-60">
          <mxGeometry relative="1" as="geometry" />
        </mxCell>
        <mxCell id="Hkx6BqKdWW9ap7nIB-2t-39" value="" style="shape=mxgraph.cisco.switches.workgroup_switch;sketch=0;html=1;pointerEvents=1;dashed=0;fillColor=#036897;strokeColor=#ffffff;strokeWidth=2;verticalLabelPosition=bottom;verticalAlign=top;align=center;outlineConnect=0;" vertex="1" parent="1">
          <mxGeometry x="311.5" y="1300" width="101" height="50" as="geometry" />
        </mxCell>
        <mxCell id="Hkx6BqKdWW9ap7nIB-2t-67" style="edgeStyle=orthogonalEdgeStyle;rounded=0;orthogonalLoop=1;jettySize=auto;html=1;" edge="1" parent="1" source="Hkx6BqKdWW9ap7nIB-2t-40" target="Hkx6BqKdWW9ap7nIB-2t-62">
          <mxGeometry relative="1" as="geometry" />
        </mxCell>
        <mxCell id="Hkx6BqKdWW9ap7nIB-2t-68" style="edgeStyle=orthogonalEdgeStyle;rounded=0;orthogonalLoop=1;jettySize=auto;html=1;" edge="1" parent="1" source="Hkx6BqKdWW9ap7nIB-2t-40" target="Hkx6BqKdWW9ap7nIB-2t-61">
          <mxGeometry relative="1" as="geometry" />
        </mxCell>
        <mxCell id="Hkx6BqKdWW9ap7nIB-2t-40" value="" style="shape=mxgraph.cisco.switches.workgroup_switch;sketch=0;html=1;pointerEvents=1;dashed=0;fillColor=#036897;strokeColor=#ffffff;strokeWidth=2;verticalLabelPosition=bottom;verticalAlign=top;align=center;outlineConnect=0;" vertex="1" parent="1">
          <mxGeometry x="479" y="1300" width="101" height="50" as="geometry" />
        </mxCell>
        <mxCell id="Hkx6BqKdWW9ap7nIB-2t-44" style="edgeStyle=orthogonalEdgeStyle;rounded=0;orthogonalLoop=1;jettySize=auto;html=1;entryX=0;entryY=0.5;entryDx=0;entryDy=0;entryPerimeter=0;shape=link;" edge="1" parent="1" source="Hkx6BqKdWW9ap7nIB-2t-45" target="Hkx6BqKdWW9ap7nIB-2t-47">
          <mxGeometry relative="1" as="geometry" />
        </mxCell>
        <mxCell id="Hkx6BqKdWW9ap7nIB-2t-45" value="" style="shape=mxgraph.cisco.switches.workgroup_switch;sketch=0;html=1;pointerEvents=1;dashed=0;fillColor=#036897;strokeColor=#ffffff;strokeWidth=2;verticalLabelPosition=bottom;verticalAlign=top;align=center;outlineConnect=0;" vertex="1" parent="1">
          <mxGeometry x="131" y="1400" width="80" height="50" as="geometry" />
        </mxCell>
        <mxCell id="Hkx6BqKdWW9ap7nIB-2t-46" style="edgeStyle=orthogonalEdgeStyle;rounded=0;orthogonalLoop=1;jettySize=auto;html=1;entryX=0;entryY=0.5;entryDx=0;entryDy=0;entryPerimeter=0;shape=link;" edge="1" parent="1" source="Hkx6BqKdWW9ap7nIB-2t-47" target="Hkx6BqKdWW9ap7nIB-2t-48">
          <mxGeometry relative="1" as="geometry" />
        </mxCell>
        <mxCell id="Hkx6BqKdWW9ap7nIB-2t-47" value="" style="shape=mxgraph.cisco.switches.workgroup_switch;sketch=0;html=1;pointerEvents=1;dashed=0;fillColor=#036897;strokeColor=#ffffff;strokeWidth=2;verticalLabelPosition=bottom;verticalAlign=top;align=center;outlineConnect=0;" vertex="1" parent="1">
          <mxGeometry x="311.5" y="1400" width="101" height="50" as="geometry" />
        </mxCell>
        <mxCell id="Hkx6BqKdWW9ap7nIB-2t-66" style="edgeStyle=orthogonalEdgeStyle;rounded=0;orthogonalLoop=1;jettySize=auto;html=1;entryX=0.16;entryY=0.5;entryDx=0;entryDy=0;entryPerimeter=0;" edge="1" parent="1" source="Hkx6BqKdWW9ap7nIB-2t-48" target="Hkx6BqKdWW9ap7nIB-2t-63">
          <mxGeometry relative="1" as="geometry" />
        </mxCell>
        <mxCell id="Hkx6BqKdWW9ap7nIB-2t-48" value="" style="shape=mxgraph.cisco.switches.workgroup_switch;sketch=0;html=1;pointerEvents=1;dashed=0;fillColor=#036897;strokeColor=#ffffff;strokeWidth=2;verticalLabelPosition=bottom;verticalAlign=top;align=center;outlineConnect=0;" vertex="1" parent="1">
          <mxGeometry x="489" y="1400" width="101" height="50" as="geometry" />
        </mxCell>
        <mxCell id="Hkx6BqKdWW9ap7nIB-2t-49" style="edgeStyle=orthogonalEdgeStyle;rounded=0;orthogonalLoop=1;jettySize=auto;html=1;entryX=0;entryY=0.5;entryDx=0;entryDy=0;entryPerimeter=0;shape=link;" edge="1" parent="1" source="Hkx6BqKdWW9ap7nIB-2t-50" target="Hkx6BqKdWW9ap7nIB-2t-52">
          <mxGeometry relative="1" as="geometry" />
        </mxCell>
        <mxCell id="Hkx6BqKdWW9ap7nIB-2t-50" value="" style="shape=mxgraph.cisco.switches.workgroup_switch;sketch=0;html=1;pointerEvents=1;dashed=0;fillColor=#036897;strokeColor=#ffffff;strokeWidth=2;verticalLabelPosition=bottom;verticalAlign=top;align=center;outlineConnect=0;" vertex="1" parent="1">
          <mxGeometry x="131" y="1490" width="80" height="50" as="geometry" />
        </mxCell>
        <mxCell id="Hkx6BqKdWW9ap7nIB-2t-51" style="edgeStyle=orthogonalEdgeStyle;rounded=0;orthogonalLoop=1;jettySize=auto;html=1;entryX=0;entryY=0.5;entryDx=0;entryDy=0;entryPerimeter=0;shape=link;" edge="1" parent="1" source="Hkx6BqKdWW9ap7nIB-2t-52" target="Hkx6BqKdWW9ap7nIB-2t-53">
          <mxGeometry relative="1" as="geometry" />
        </mxCell>
        <mxCell id="Hkx6BqKdWW9ap7nIB-2t-52" value="" style="shape=mxgraph.cisco.switches.workgroup_switch;sketch=0;html=1;pointerEvents=1;dashed=0;fillColor=#036897;strokeColor=#ffffff;strokeWidth=2;verticalLabelPosition=bottom;verticalAlign=top;align=center;outlineConnect=0;" vertex="1" parent="1">
          <mxGeometry x="311.5" y="1490" width="101" height="50" as="geometry" />
        </mxCell>
        <mxCell id="Hkx6BqKdWW9ap7nIB-2t-65" style="edgeStyle=orthogonalEdgeStyle;rounded=0;orthogonalLoop=1;jettySize=auto;html=1;exitX=0.98;exitY=0.5;exitDx=0;exitDy=0;exitPerimeter=0;entryX=0.16;entryY=0.5;entryDx=0;entryDy=0;entryPerimeter=0;" edge="1" parent="1" source="Hkx6BqKdWW9ap7nIB-2t-53" target="Hkx6BqKdWW9ap7nIB-2t-64">
          <mxGeometry relative="1" as="geometry" />
        </mxCell>
        <mxCell id="Hkx6BqKdWW9ap7nIB-2t-53" value="" style="shape=mxgraph.cisco.switches.workgroup_switch;sketch=0;html=1;pointerEvents=1;dashed=0;fillColor=#036897;strokeColor=#ffffff;strokeWidth=2;verticalLabelPosition=bottom;verticalAlign=top;align=center;outlineConnect=0;" vertex="1" parent="1">
          <mxGeometry x="489" y="1490" width="101" height="50" as="geometry" />
        </mxCell>
        <mxCell id="Hkx6BqKdWW9ap7nIB-2t-59" value="" style="shape=mxgraph.cisco.computers_and_peripherals.pc;sketch=0;html=1;pointerEvents=1;dashed=0;fillColor=#036897;strokeColor=#ffffff;strokeWidth=2;verticalLabelPosition=bottom;verticalAlign=top;align=center;outlineConnect=0;" vertex="1" parent="1">
          <mxGeometry x="142" y="1190" width="78" height="70" as="geometry" />
        </mxCell>
        <mxCell id="Hkx6BqKdWW9ap7nIB-2t-60" value="" style="shape=mxgraph.cisco.computers_and_peripherals.pc;sketch=0;html=1;pointerEvents=1;dashed=0;fillColor=#036897;strokeColor=#ffffff;strokeWidth=2;verticalLabelPosition=bottom;verticalAlign=top;align=center;outlineConnect=0;" vertex="1" parent="1">
          <mxGeometry x="323" y="1190" width="78" height="70" as="geometry" />
        </mxCell>
        <mxCell id="Hkx6BqKdWW9ap7nIB-2t-61" value="" style="shape=mxgraph.cisco.computers_and_peripherals.pc;sketch=0;html=1;pointerEvents=1;dashed=0;fillColor=#036897;strokeColor=#ffffff;strokeWidth=2;verticalLabelPosition=bottom;verticalAlign=top;align=center;outlineConnect=0;" vertex="1" parent="1">
          <mxGeometry x="490.5" y="1190" width="78" height="70" as="geometry" />
        </mxCell>
        <mxCell id="Hkx6BqKdWW9ap7nIB-2t-62" value="" style="shape=mxgraph.cisco.computers_and_peripherals.pc;sketch=0;html=1;pointerEvents=1;dashed=0;fillColor=#036897;strokeColor=#ffffff;strokeWidth=2;verticalLabelPosition=bottom;verticalAlign=top;align=center;outlineConnect=0;" vertex="1" parent="1">
          <mxGeometry x="640" y="1290" width="78" height="70" as="geometry" />
        </mxCell>
        <mxCell id="Hkx6BqKdWW9ap7nIB-2t-63" value="" style="shape=mxgraph.cisco.computers_and_peripherals.pc;sketch=0;html=1;pointerEvents=1;dashed=0;fillColor=#036897;strokeColor=#ffffff;strokeWidth=2;verticalLabelPosition=bottom;verticalAlign=top;align=center;outlineConnect=0;" vertex="1" parent="1">
          <mxGeometry x="640" y="1390" width="78" height="70" as="geometry" />
        </mxCell>
        <mxCell id="Hkx6BqKdWW9ap7nIB-2t-64" value="" style="shape=mxgraph.cisco.computers_and_peripherals.pc;sketch=0;html=1;pointerEvents=1;dashed=0;fillColor=#036897;strokeColor=#ffffff;strokeWidth=2;verticalLabelPosition=bottom;verticalAlign=top;align=center;outlineConnect=0;" vertex="1" parent="1">
          <mxGeometry x="640" y="1480" width="78" height="70" as="geometry" />
        </mxCell>
        <mxCell id="Hkx6BqKdWW9ap7nIB-2t-77" style="edgeStyle=orthogonalEdgeStyle;rounded=0;orthogonalLoop=1;jettySize=auto;html=1;entryX=0.98;entryY=0.5;entryDx=0;entryDy=0;entryPerimeter=0;shape=link;" edge="1" parent="1" source="Hkx6BqKdWW9ap7nIB-2t-72" target="Hkx6BqKdWW9ap7nIB-2t-73">
          <mxGeometry relative="1" as="geometry" />
        </mxCell>
        <mxCell id="Hkx6BqKdWW9ap7nIB-2t-78" style="edgeStyle=orthogonalEdgeStyle;rounded=0;orthogonalLoop=1;jettySize=auto;html=1;entryX=0;entryY=0.5;entryDx=0;entryDy=0;entryPerimeter=0;shape=link;" edge="1" parent="1" source="Hkx6BqKdWW9ap7nIB-2t-72" target="Hkx6BqKdWW9ap7nIB-2t-75">
          <mxGeometry relative="1" as="geometry" />
        </mxCell>
        <mxCell id="Hkx6BqKdWW9ap7nIB-2t-72" value="" style="shape=mxgraph.cisco.routers.router;sketch=0;html=1;pointerEvents=1;dashed=0;fillColor=#036897;strokeColor=#ffffff;strokeWidth=2;verticalLabelPosition=bottom;verticalAlign=top;align=center;outlineConnect=0;" vertex="1" parent="1">
          <mxGeometry x="323" y="1937" width="78" height="53" as="geometry" />
        </mxCell>
        <mxCell id="Hkx6BqKdWW9ap7nIB-2t-82" style="edgeStyle=orthogonalEdgeStyle;rounded=0;orthogonalLoop=1;jettySize=auto;html=1;entryX=0.5;entryY=1;entryDx=0;entryDy=0;entryPerimeter=0;shape=link;" edge="1" parent="1" source="Hkx6BqKdWW9ap7nIB-2t-73" target="Hkx6BqKdWW9ap7nIB-2t-79">
          <mxGeometry relative="1" as="geometry">
            <Array as="points">
              <mxPoint x="162" y="1900" />
            </Array>
          </mxGeometry>
        </mxCell>
        <mxCell id="Hkx6BqKdWW9ap7nIB-2t-83" style="edgeStyle=orthogonalEdgeStyle;rounded=0;orthogonalLoop=1;jettySize=auto;html=1;shape=link;" edge="1" parent="1" source="Hkx6BqKdWW9ap7nIB-2t-73" target="Hkx6BqKdWW9ap7nIB-2t-81">
          <mxGeometry relative="1" as="geometry" />
        </mxCell>
        <mxCell id="Hkx6BqKdWW9ap7nIB-2t-84" style="edgeStyle=orthogonalEdgeStyle;rounded=0;orthogonalLoop=1;jettySize=auto;html=1;shape=link;" edge="1" parent="1" source="Hkx6BqKdWW9ap7nIB-2t-73" target="Hkx6BqKdWW9ap7nIB-2t-80">
          <mxGeometry relative="1" as="geometry" />
        </mxCell>
        <mxCell id="Hkx6BqKdWW9ap7nIB-2t-73" value="" style="shape=mxgraph.cisco.switches.workgroup_switch;sketch=0;html=1;pointerEvents=1;dashed=0;fillColor=#036897;strokeColor=#ffffff;strokeWidth=2;verticalLabelPosition=bottom;verticalAlign=top;align=center;outlineConnect=0;" vertex="1" parent="1">
          <mxGeometry x="122" y="1938.5" width="80" height="50" as="geometry" />
        </mxCell>
        <mxCell id="Hkx6BqKdWW9ap7nIB-2t-74" style="edgeStyle=orthogonalEdgeStyle;rounded=0;orthogonalLoop=1;jettySize=auto;html=1;entryX=0;entryY=0.5;entryDx=0;entryDy=0;entryPerimeter=0;shape=link;" edge="1" parent="1" source="Hkx6BqKdWW9ap7nIB-2t-75" target="Hkx6BqKdWW9ap7nIB-2t-76">
          <mxGeometry relative="1" as="geometry" />
        </mxCell>
        <mxCell id="Hkx6BqKdWW9ap7nIB-2t-75" value="" style="shape=mxgraph.cisco.switches.workgroup_switch;sketch=0;html=1;pointerEvents=1;dashed=0;fillColor=#036897;strokeColor=#ffffff;strokeWidth=2;verticalLabelPosition=bottom;verticalAlign=top;align=center;outlineConnect=0;" vertex="1" parent="1">
          <mxGeometry x="500" y="1938.5" width="101" height="50" as="geometry" />
        </mxCell>
        <mxCell id="Hkx6BqKdWW9ap7nIB-2t-86" style="edgeStyle=orthogonalEdgeStyle;rounded=0;orthogonalLoop=1;jettySize=auto;html=1;" edge="1" parent="1" source="Hkx6BqKdWW9ap7nIB-2t-76">
          <mxGeometry relative="1" as="geometry">
            <mxPoint x="728" y="2080" as="targetPoint" />
          </mxGeometry>
        </mxCell>
        <mxCell id="Hkx6BqKdWW9ap7nIB-2t-76" value="" style="shape=mxgraph.cisco.switches.workgroup_switch;sketch=0;html=1;pointerEvents=1;dashed=0;fillColor=#036897;strokeColor=#ffffff;strokeWidth=2;verticalLabelPosition=bottom;verticalAlign=top;align=center;outlineConnect=0;" vertex="1" parent="1">
          <mxGeometry x="677.5" y="1938.5" width="101" height="50" as="geometry" />
        </mxCell>
        <mxCell id="Hkx6BqKdWW9ap7nIB-2t-79" value="" style="shape=mxgraph.cisco.computers_and_peripherals.pc;sketch=0;html=1;pointerEvents=1;dashed=0;fillColor=#036897;strokeColor=#ffffff;strokeWidth=2;verticalLabelPosition=bottom;verticalAlign=top;align=center;outlineConnect=0;" vertex="1" parent="1">
          <mxGeometry x="122" y="1780" width="78" height="70" as="geometry" />
        </mxCell>
        <mxCell id="Hkx6BqKdWW9ap7nIB-2t-80" value="" style="shape=mxgraph.cisco.computers_and_peripherals.pc;sketch=0;html=1;pointerEvents=1;dashed=0;fillColor=#036897;strokeColor=#ffffff;strokeWidth=2;verticalLabelPosition=bottom;verticalAlign=top;align=center;outlineConnect=0;" vertex="1" parent="1">
          <mxGeometry x="122" y="2080" width="78" height="70" as="geometry" />
        </mxCell>
        <mxCell id="Hkx6BqKdWW9ap7nIB-2t-81" value="" style="shape=mxgraph.cisco.computers_and_peripherals.pc;sketch=0;html=1;pointerEvents=1;dashed=0;fillColor=#036897;strokeColor=#ffffff;strokeWidth=2;verticalLabelPosition=bottom;verticalAlign=top;align=center;outlineConnect=0;" vertex="1" parent="1">
          <mxGeometry x="-40" y="1928.5" width="78" height="70" as="geometry" />
        </mxCell>
        <mxCell id="Hkx6BqKdWW9ap7nIB-2t-88" value="" style="edgeStyle=orthogonalEdgeStyle;rounded=0;orthogonalLoop=1;jettySize=auto;html=1;shape=link;" edge="1" parent="1" source="Hkx6BqKdWW9ap7nIB-2t-87" target="Hkx6BqKdWW9ap7nIB-2t-76">
          <mxGeometry relative="1" as="geometry">
            <Array as="points">
              <mxPoint x="730" y="2040" />
              <mxPoint x="730" y="2040" />
            </Array>
          </mxGeometry>
        </mxCell>
        <mxCell id="Hkx6BqKdWW9ap7nIB-2t-87" value="" style="shape=mxgraph.cisco.computers_and_peripherals.pc;sketch=0;html=1;pointerEvents=1;dashed=0;fillColor=#036897;strokeColor=#ffffff;strokeWidth=2;verticalLabelPosition=bottom;verticalAlign=top;align=center;outlineConnect=0;" vertex="1" parent="1">
          <mxGeometry x="689" y="2070" width="78" height="70" as="geometry" />
        </mxCell>
        <mxCell id="Hkx6BqKdWW9ap7nIB-2t-89" value="主机A" style="text;html=1;align=center;verticalAlign=middle;resizable=0;points=[];autosize=1;strokeColor=none;fillColor=none;" vertex="1" parent="1">
          <mxGeometry x="118" y="2158" width="60" height="30" as="geometry" />
        </mxCell>
        <mxCell id="Hkx6BqKdWW9ap7nIB-2t-90" value="主机B" style="text;html=1;align=center;verticalAlign=middle;resizable=0;points=[];autosize=1;strokeColor=none;fillColor=none;" vertex="1" parent="1">
          <mxGeometry x="-31" y="2010" width="60" height="30" as="geometry" />
        </mxCell>
        <mxCell id="Hkx6BqKdWW9ap7nIB-2t-91" value="主机C" style="text;html=1;align=center;verticalAlign=middle;resizable=0;points=[];autosize=1;strokeColor=none;fillColor=none;" vertex="1" parent="1">
          <mxGeometry x="132" y="1724" width="60" height="30" as="geometry" />
        </mxCell>
        <mxCell id="Hkx6BqKdWW9ap7nIB-2t-92" value="主机D" style="text;html=1;align=center;verticalAlign=middle;resizable=0;points=[];autosize=1;strokeColor=none;fillColor=none;" vertex="1" parent="1">
          <mxGeometry x="698" y="2158" width="60" height="30" as="geometry" />
        </mxCell>
        <mxCell id="Hkx6BqKdWW9ap7nIB-2t-94" value="路由器1" style="text;html=1;align=center;verticalAlign=middle;resizable=0;points=[];autosize=1;strokeColor=none;fillColor=none;" vertex="1" parent="1">
          <mxGeometry x="327" y="1890" width="70" height="30" as="geometry" />
        </mxCell>
        <mxCell id="Hkx6BqKdWW9ap7nIB-2t-95" value="交换机1" style="text;html=1;align=center;verticalAlign=middle;resizable=0;points=[];autosize=1;strokeColor=none;fillColor=none;" vertex="1" parent="1">
          <mxGeometry x="170" y="1898.5" width="70" height="30" as="geometry" />
        </mxCell>
        <mxCell id="Hkx6BqKdWW9ap7nIB-2t-96" value="交换机2" style="text;html=1;align=center;verticalAlign=middle;resizable=0;points=[];autosize=1;strokeColor=none;fillColor=none;" vertex="1" parent="1">
          <mxGeometry x="520" y="1890" width="70" height="30" as="geometry" />
        </mxCell>
        <mxCell id="Hkx6BqKdWW9ap7nIB-2t-97" value="交换机3" style="text;html=1;align=center;verticalAlign=middle;resizable=0;points=[];autosize=1;strokeColor=none;fillColor=none;" vertex="1" parent="1">
          <mxGeometry x="698" y="1890" width="70" height="30" as="geometry" />
        </mxCell>
      </root>
    </mxGraphModel>
  </diagram>
</mxfile>
